<svg width="41" height="39" viewBox="0 0 41 39" fill="none" xmlns="http://www.w3.org/2000/svg">
<path opacity="0.4" d="M20.5924 34.8824C29.8593 34.8824 37.3715 27.8953 37.3715 19.2763C37.3715 10.6572 29.8593 3.6701 20.5924 3.6701C11.3255 3.6701 3.81323 10.6572 3.81323 19.2763C3.81323 27.8953 11.3255 34.8824 20.5924 34.8824Z" fill="black"/>
<path d="M25.6666 18.8753H16.3333C15.9652 18.8753 15.6667 18.5952 15.6667 18.2504C15.6667 17.9053 15.9655 17.6254 16.3333 17.6254H25.6666C26.0346 17.6254 26.3332 17.9055 26.3332 18.2504C26.3332 18.5952 26.0344 18.8753 25.6663 18.8753H25.6666ZM24.3334 15.7504C24.3334 15.4053 24.0346 15.1254 23.6668 15.1254H18.3333C17.9653 15.1254 17.6667 15.4055 17.6667 15.7504C17.6667 16.0954 17.9655 16.3753 18.3333 16.3753H23.6668C24.0346 16.3753 24.3334 16.0954 24.3334 15.7504V15.7504ZM31 13.8753V23.8751C31 24.9091 30.103 25.7501 28.9999 25.7501H25.2774C25.1688 25.8554 25.0346 25.9873 25.0046 26.0555C24.967 26.1403 24.9623 26.3481 24.9586 26.5146C24.9495 26.9255 24.9379 27.4377 24.5352 27.8148C24.2815 28.0527 23.9711 28.1385 23.6665 28.1765L23.6667 31.3751C23.6667 31.576 23.5637 31.7644 23.3898 31.8819C23.2747 31.9597 23.138 32 23.0001 32C22.9292 32 22.858 31.9893 22.7892 31.9677L21 31.4088L19.211 31.968C19.008 32.0301 18.7841 31.9996 18.6104 31.8821C18.4363 31.7644 18.3333 31.576 18.3333 31.3751V28.176C18.0282 28.1383 17.7183 28.0522 17.4646 27.8144C17.0623 27.4373 17.0505 26.925 17.0412 26.5142C17.0375 26.3476 17.0333 26.1401 16.9951 26.0553C16.9651 25.9871 16.8312 25.8552 16.7224 25.7497L13.0001 25.7499C11.8971 25.7499 11 24.909 11 23.8748V13.8751C11 12.841 11.897 12 13.0001 12H29C30.1028 12.0002 30.9999 12.8412 30.9999 13.8751L31 13.8753ZM22.3334 30.5083V28.5103C22.325 28.5177 22.3157 28.5262 22.3078 28.5334C22.0041 28.8096 21.5884 29.1878 21.0001 29.1878C20.4119 29.1878 19.9962 28.8096 19.6925 28.5334C19.6846 28.5262 19.675 28.5177 19.6669 28.5103V30.5083L20.7892 30.1573C20.9266 30.1146 21.0738 30.1146 21.2112 30.1573L22.3334 30.5083ZM24.6634 24.5006C24.6283 24.4187 24.4521 24.2484 24.3451 24.1451C24.1375 23.9441 23.9024 23.7172 23.7729 23.4238C23.6397 23.1219 23.632 22.7982 23.6259 22.5126C23.6227 22.3657 23.6173 22.1205 23.5785 22.0529C23.5388 22.047 23.2772 22.042 23.1205 22.0388C22.8159 22.0329 22.4703 22.0259 22.1481 21.901C21.8354 21.7794 21.5933 21.5592 21.3792 21.3646C21.2629 21.2586 21.0676 21.0814 20.9869 21.0618C20.9323 21.0812 20.737 21.2586 20.6205 21.3646C20.4061 21.5592 20.1641 21.7796 19.8511 21.901C19.529 22.0259 19.1838 22.0331 18.8792 22.0388C18.7225 22.0418 18.4609 22.0468 18.3888 22.0832C18.3825 22.1205 18.3772 22.3657 18.3737 22.5126C18.3674 22.7982 18.36 23.1221 18.2267 23.4242C18.097 23.7174 17.8622 23.9443 17.6545 24.1451C17.5415 24.2541 17.3525 24.4372 17.3316 24.5128C17.3523 24.564 17.5415 24.7471 17.6545 24.8563C17.8622 25.0573 18.0972 25.2842 18.2267 25.5776C18.36 25.8795 18.3676 26.2032 18.3737 26.4888C18.3769 26.6357 18.3823 26.8809 18.4211 26.9485C18.4609 26.9544 18.7225 26.9594 18.8792 26.9627C19.1838 26.9686 19.5293 26.9755 19.8516 27.1004C20.1643 27.2221 20.4063 27.4422 20.6205 27.6369C20.7367 27.7428 20.932 27.92 21.0127 27.9397C21.0674 27.9203 21.2627 27.7428 21.3792 27.6369C21.5935 27.4422 21.8356 27.2219 22.1486 27.1004C22.4706 26.9755 22.8159 26.9683 23.1205 26.9627C23.2772 26.9596 23.5388 26.9546 23.6108 26.9182C23.6171 26.8809 23.6225 26.6357 23.6259 26.4888C23.6322 26.2032 23.6397 25.8793 23.7729 25.5772C23.9026 25.284 24.1375 25.0571 24.3451 24.8563C24.4521 24.7528 24.6285 24.5823 24.6634 24.5006V24.5006ZM29.6669 13.8759C29.6669 13.5312 29.3679 13.2509 29.0003 13.2509H13.0004C12.6328 13.2509 12.3338 13.5312 12.3338 13.8759V23.8756C12.3338 24.2203 12.6328 24.5006 13.0004 24.5006H16.0003C16.0003 23.9491 16.4037 23.5593 16.6983 23.2746C16.8104 23.1663 16.9636 23.0183 16.9959 22.9453C17.0336 22.8605 17.0382 22.6527 17.042 22.4862C17.051 22.0753 17.0626 21.5631 17.4654 21.186C17.8681 20.8089 18.414 20.7977 18.8523 20.789C19.03 20.7855 19.2513 20.7816 19.3418 20.7459C19.4197 20.7156 19.5778 20.5717 19.6933 20.4669C19.9963 20.1913 20.412 19.8134 21.0003 19.8134C21.5885 19.8134 22.0043 20.1915 22.3079 20.4677C22.4235 20.5728 22.5814 20.7165 22.6593 20.7468C22.7497 20.7821 22.9713 20.7864 23.1489 20.7899C23.5872 20.7984 24.1336 20.8093 24.5359 21.1869C24.9382 21.5644 24.95 22.0762 24.9593 22.4871C24.963 22.6536 24.9672 22.8612 25.0053 22.946C25.0377 23.019 25.1911 23.1672 25.303 23.2755C25.5969 23.5596 26.0003 23.9491 26.0003 24.5008H29.0001C29.3678 24.5008 29.6667 24.2205 29.6667 23.8759L29.6669 13.8759ZM23.0003 24.5006C23.0003 23.4665 22.1033 22.6255 21.0002 22.6255C19.8971 22.6255 19.0001 23.4665 19.0001 24.5006C19.0001 25.5347 19.8971 26.3757 21.0002 26.3757C22.1032 26.3755 23.0003 25.5347 23.0003 24.5006ZM21.6668 24.5006C21.6668 24.8452 21.3678 25.1255 21.0002 25.1255C20.6326 25.1255 20.3336 24.8452 20.3336 24.5006C20.3336 24.156 20.6326 23.8757 21.0002 23.8757C21.3678 23.8757 21.6668 24.156 21.6668 24.5006Z" fill="black"/>
</svg>
