<svg width="41" height="39" viewBox="0 0 41 39" fill="none" xmlns="http://www.w3.org/2000/svg">
<path opacity="0.4" d="M20.5924 34.8824C29.8593 34.8824 37.3715 27.8953 37.3715 19.2763C37.3715 10.6572 29.8593 3.6701 20.5924 3.6701C11.3255 3.6701 3.81323 10.6572 3.81323 19.2763C3.81323 27.8953 11.3255 34.8824 20.5924 34.8824Z" fill="black"/>
<path d="M22.1745 6C19.4707 6 17.2881 8.1777 17.2881 10.839C17.2881 11.9809 17.7836 12.9297 18.2689 13.7333C19.0089 14.9587 19.0957 15.7653 19.0955 16.3082C19.0953 16.5797 19.0651 16.7664 19.0772 17.0185C19.0835 17.1447 19.087 17.332 19.25 17.5247C19.4128 17.7173 19.6879 17.7821 19.8584 17.7821H24.4907C24.6612 17.7821 24.9274 17.7173 25.0902 17.5247C25.253 17.332 25.2658 17.1447 25.2718 17.0185C25.2842 16.7664 25.2538 16.5797 25.2536 16.3082C25.2534 15.7653 25.3402 14.9587 26.0802 13.7333C26.5656 12.9297 27.0522 11.9809 27.0522 10.839C27.0522 8.1777 24.8783 6 22.1746 6H22.1745ZM22.1745 7.13639C24.2427 7.13639 25.8893 8.77836 25.8893 10.839C25.8893 11.6603 25.535 12.4046 25.081 13.1562C24.2431 14.5439 24.0906 15.6189 24.091 16.3082C24.091 16.4852 24.0937 16.5294 24.1002 16.6457H22.7558V12.3749C23.3117 12.1468 23.7095 11.6085 23.7095 10.9898C23.7095 10.1689 23.0167 9.49822 22.1746 9.49822C21.3323 9.49822 20.6396 10.1689 20.6396 10.9898C20.6396 11.6123 21.0339 12.1581 21.5933 12.3838V16.6457H20.24C20.2465 16.5293 20.2581 16.4853 20.2581 16.3082C20.2585 15.6189 20.106 14.5439 19.2681 13.1562C18.8141 12.4047 18.4506 11.6603 18.4506 10.839C18.4506 8.77842 20.1064 7.13639 22.1746 7.13639H22.1745ZM22.1745 10.6257C22.3876 10.6257 22.547 10.7822 22.547 10.9897C22.547 11.1974 22.3876 11.3538 22.1745 11.3538C21.9616 11.3538 21.8021 11.1974 21.8021 10.9897C21.8021 10.7822 21.9616 10.6257 22.1745 10.6257ZM19.8947 18.5902C19.7406 18.5986 19.596 18.6661 19.493 18.7787C19.3898 18.8911 19.3367 19.0389 19.3452 19.1896C19.3536 19.3402 19.4229 19.4815 19.5378 19.5824C19.653 19.6831 19.8042 19.735 19.9583 19.7267H24.3907C24.5464 19.7288 24.6964 19.67 24.8071 19.5631C24.918 19.4563 24.9802 19.3107 24.9802 19.1584C24.9802 19.0064 24.918 18.8606 24.8071 18.7537C24.6964 18.6469 24.5464 18.5881 24.3907 18.5902H19.9583C19.9372 18.589 19.916 18.589 19.8947 18.5902L19.8947 18.5902ZM33.3103 18.7589C32.8728 18.7589 32.4663 18.9242 32.1658 19.1939C32.1609 19.1985 32.1526 19.1983 32.1477 19.2028C32.1338 19.2151 31.35 19.8945 30.4946 20.6413C29.6315 21.3948 28.7417 22.1743 28.4692 22.4347C28.3563 22.5392 28.2906 22.6833 28.2871 22.8351C28.2837 22.9869 28.3425 23.1339 28.4505 23.2429C28.5586 23.3521 28.7068 23.4146 28.8621 23.4162C29.0176 23.4177 29.167 23.3585 29.2775 23.2517C29.4588 23.0784 30.4054 22.2455 31.2666 21.4938C32.1279 20.7418 32.9378 20.0464 32.9378 20.0464C32.941 20.0407 32.9441 20.0347 32.9469 20.0288C33.0418 19.9414 33.1671 19.8956 33.3102 19.8956C33.6083 19.8956 33.8369 20.1191 33.8369 20.4105C33.8369 20.5353 33.7917 20.6415 33.719 20.7301C33.7171 20.7329 33.7208 20.7371 33.719 20.7391C33.6922 20.7672 30.216 24.4093 27.9698 26.7056C27.3528 27.3363 26.5024 27.9665 25.2721 27.9665H18.3785C17.6429 27.9665 16.8912 28.0743 16.2803 28.597L14.6362 29.9997C14.5194 30.0986 14.4477 30.2389 14.4365 30.3896C14.4254 30.5402 14.4761 30.689 14.5772 30.8032C14.7879 31.041 15.1558 31.067 15.3991 30.861L17.0432 29.4492C17.3688 29.1707 17.7473 29.1029 18.3785 29.1029H25.2721C26.9169 29.1029 28.0792 28.2293 28.8053 27.4871C31.0713 25.1707 34.5913 21.485 34.5913 21.485C34.5976 21.4763 34.6036 21.4674 34.6093 21.4582C34.8516 21.1728 35 20.8082 35 20.4106C35 19.5051 34.2369 18.7591 33.3105 18.7591L33.3103 18.7589ZM21.4844 20.517C21.3303 20.5239 21.1854 20.5905 21.0814 20.7021C20.9774 20.8137 20.923 20.9611 20.9303 21.1118C20.9376 21.2626 21.0058 21.4043 21.1199 21.5058C21.234 21.6074 21.3849 21.6605 21.539 21.6534H22.8106C22.9663 21.6556 23.1161 21.5967 23.227 21.4899C23.3379 21.3831 23.4001 21.2372 23.4001 21.0852C23.4001 20.933 23.3379 20.7873 23.227 20.6805C23.1161 20.5737 22.9663 20.5148 22.8106 20.517H21.539C21.5209 20.516 21.5027 20.516 21.4844 20.517L21.4844 20.517ZM17.9786 22.5502C16.7508 22.5502 15.5034 22.6889 14.4817 23.4202L10.2399 26.448C10.1146 26.5373 10.0309 26.6719 10.007 26.8217C9.98306 26.9716 10.0212 27.1246 10.1126 27.2471C10.2043 27.3695 10.3419 27.4514 10.4952 27.4748C10.6485 27.4982 10.805 27.4609 10.9303 27.3713L15.1629 24.3349C15.8676 23.8301 16.8465 23.6866 17.9786 23.6866H26.5621C26.6367 23.9012 26.6228 24.1494 26.4531 24.4237C26.2296 24.7847 25.8278 25.0117 25.5993 24.9918C25.5843 24.9883 25.5691 24.9853 25.5539 24.9829H20.004C19.8485 24.9807 19.6985 25.0396 19.5876 25.1464C19.4769 25.2533 19.4145 25.3991 19.4145 25.5511C19.4145 25.7033 19.4769 25.849 19.5876 25.9558C19.6985 26.0627 19.8485 26.1215 20.004 26.1193H25.5539C25.5541 26.1195 25.5535 26.1106 25.5539 26.1106C26.3762 26.1558 27.0499 25.6447 27.443 25.0095C27.8453 24.3598 27.9777 23.4299 27.3796 22.7454C27.2677 22.6197 27.1049 22.5484 26.9344 22.5502L17.9786 22.5502Z" fill="black"/>
</svg>
