<svg width="52" height="39" viewBox="0 0 52 39" fill="none" xmlns="http://www.w3.org/2000/svg">
<path d="M1.224 28.5C1.144 28.5 1.076 28.472 1.02 28.416C0.964 28.36 0.936 28.292 0.936 28.212V20.4C0.936 20.312 0.964 20.24 1.02 20.184C1.076 20.128 1.144 20.1 1.224 20.1H4.332C5.3 20.1 6.064 20.324 6.624 20.772C7.184 21.22 7.464 21.872 7.464 22.728C7.464 23.32 7.316 23.812 7.02 24.204C6.732 24.596 6.344 24.88 5.856 25.056L7.608 28.116C7.632 28.164 7.644 28.208 7.644 28.248C7.644 28.32 7.616 28.38 7.56 28.428C7.512 28.476 7.456 28.5 7.392 28.5H6.3C6.164 28.5 6.06 28.464 5.988 28.392C5.916 28.32 5.86 28.248 5.82 28.176L4.272 25.332H2.604V28.212C2.604 28.292 2.576 28.36 2.52 28.416C2.472 28.472 2.404 28.5 2.316 28.5H1.224ZM2.604 23.976H4.296C4.784 23.976 5.148 23.868 5.388 23.652C5.628 23.428 5.748 23.116 5.748 22.716C5.748 22.316 5.628 22.004 5.388 21.78C5.156 21.548 4.792 21.432 4.296 21.432H2.604V23.976ZM11.4839 28.62C10.5959 28.62 9.89191 28.364 9.37191 27.852C8.85191 27.34 8.57191 26.612 8.53191 25.668C8.52391 25.588 8.51991 25.488 8.51991 25.368C8.51991 25.24 8.52391 25.14 8.53191 25.068C8.56391 24.468 8.69991 23.948 8.93991 23.508C9.18791 23.068 9.52791 22.732 9.95991 22.5C10.3919 22.26 10.8999 22.14 11.4839 22.14C12.1319 22.14 12.6759 22.276 13.1159 22.548C13.5559 22.812 13.8879 23.184 14.1119 23.664C14.3359 24.136 14.4479 24.684 14.4479 25.308V25.56C14.4479 25.64 14.4199 25.708 14.3639 25.764C14.3079 25.82 14.2359 25.848 14.1479 25.848H10.1639C10.1639 25.848 10.1639 25.86 10.1639 25.884C10.1639 25.908 10.1639 25.928 10.1639 25.944C10.1719 26.224 10.2239 26.484 10.3199 26.724C10.4239 26.956 10.5719 27.144 10.7639 27.288C10.9639 27.432 11.1999 27.504 11.4719 27.504C11.6959 27.504 11.8839 27.472 12.0359 27.408C12.1879 27.336 12.3119 27.256 12.4079 27.168C12.5039 27.08 12.5719 27.008 12.6119 26.952C12.6839 26.856 12.7399 26.8 12.7799 26.784C12.8279 26.76 12.8959 26.748 12.9839 26.748H14.0159C14.0959 26.748 14.1599 26.772 14.2079 26.82C14.2639 26.868 14.2879 26.928 14.2799 27C14.2719 27.128 14.2039 27.284 14.0759 27.468C13.9559 27.652 13.7799 27.832 13.5479 28.008C13.3159 28.184 13.0239 28.332 12.6719 28.452C12.3279 28.564 11.9319 28.62 11.4839 28.62ZM10.1639 24.84H12.8159V24.804C12.8159 24.492 12.7639 24.22 12.6599 23.988C12.5559 23.756 12.4039 23.572 12.2039 23.436C12.0039 23.3 11.7639 23.232 11.4839 23.232C11.2039 23.232 10.9639 23.3 10.7639 23.436C10.5639 23.572 10.4119 23.756 10.3079 23.988C10.2119 24.22 10.1639 24.492 10.1639 24.804V24.84ZM16.0217 30.78C15.9417 30.78 15.8737 30.752 15.8177 30.696C15.7617 30.64 15.7337 30.572 15.7337 30.492V22.548C15.7337 22.468 15.7617 22.4 15.8177 22.344C15.8737 22.288 15.9417 22.26 16.0217 22.26H16.9697C17.0577 22.26 17.1257 22.288 17.1737 22.344C17.2297 22.4 17.2577 22.468 17.2577 22.548V23.028C17.4497 22.772 17.7017 22.56 18.0137 22.392C18.3257 22.224 18.7137 22.14 19.1777 22.14C19.6017 22.14 19.9697 22.208 20.2817 22.344C20.5937 22.48 20.8537 22.676 21.0617 22.932C21.2697 23.18 21.4297 23.476 21.5417 23.82C21.6537 24.164 21.7177 24.544 21.7337 24.96C21.7417 25.096 21.7457 25.236 21.7457 25.38C21.7457 25.524 21.7417 25.668 21.7337 25.812C21.7257 26.212 21.6657 26.584 21.5537 26.928C21.4417 27.264 21.2777 27.56 21.0617 27.816C20.8537 28.064 20.5937 28.26 20.2817 28.404C19.9697 28.548 19.6017 28.62 19.1777 28.62C18.7457 28.62 18.3777 28.544 18.0737 28.392C17.7697 28.232 17.5217 28.024 17.3297 27.768V30.492C17.3297 30.572 17.3017 30.64 17.2457 30.696C17.1977 30.752 17.1297 30.78 17.0417 30.78H16.0217ZM18.7337 27.336C19.0777 27.336 19.3457 27.264 19.5377 27.12C19.7297 26.968 19.8657 26.772 19.9457 26.532C20.0337 26.292 20.0857 26.028 20.1017 25.74C20.1177 25.5 20.1177 25.26 20.1017 25.02C20.0857 24.732 20.0337 24.468 19.9457 24.228C19.8657 23.988 19.7297 23.796 19.5377 23.652C19.3457 23.5 19.0777 23.424 18.7337 23.424C18.4057 23.424 18.1377 23.5 17.9297 23.652C17.7297 23.804 17.5817 24 17.4857 24.24C17.3977 24.472 17.3457 24.712 17.3297 24.96C17.3217 25.104 17.3177 25.256 17.3177 25.416C17.3177 25.576 17.3217 25.732 17.3297 25.884C17.3377 26.124 17.3937 26.356 17.4977 26.58C17.6017 26.796 17.7537 26.976 17.9537 27.12C18.1537 27.264 18.4137 27.336 18.7337 27.336ZM25.8528 28.62C25.2128 28.62 24.6728 28.508 24.2328 28.284C23.8008 28.06 23.4688 27.744 23.2368 27.336C23.0128 26.928 22.8848 26.452 22.8528 25.908C22.8448 25.764 22.8408 25.588 22.8408 25.38C22.8408 25.172 22.8448 24.996 22.8528 24.852C22.8848 24.3 23.0168 23.824 23.2488 23.424C23.4888 23.016 23.8248 22.7 24.2568 22.476C24.6968 22.252 25.2288 22.14 25.8528 22.14C26.4768 22.14 27.0048 22.252 27.4368 22.476C27.8768 22.7 28.2128 23.016 28.4448 23.424C28.6848 23.824 28.8208 24.3 28.8528 24.852C28.8608 24.996 28.8648 25.172 28.8648 25.38C28.8648 25.588 28.8608 25.764 28.8528 25.908C28.8208 26.452 28.6888 26.928 28.4568 27.336C28.2328 27.744 27.9008 28.06 27.4608 28.284C27.0288 28.508 26.4928 28.62 25.8528 28.62ZM25.8528 27.432C26.2768 27.432 26.6048 27.3 26.8368 27.036C27.0688 26.764 27.1968 26.368 27.2208 25.848C27.2288 25.728 27.2328 25.572 27.2328 25.38C27.2328 25.188 27.2288 25.032 27.2208 24.912C27.1968 24.4 27.0688 24.008 26.8368 23.736C26.6048 23.464 26.2768 23.328 25.8528 23.328C25.4288 23.328 25.1008 23.464 24.8688 23.736C24.6368 24.008 24.5088 24.4 24.4848 24.912C24.4768 25.032 24.4728 25.188 24.4728 25.38C24.4728 25.572 24.4768 25.728 24.4848 25.848C24.5088 26.368 24.6368 26.764 24.8688 27.036C25.1008 27.3 25.4288 27.432 25.8528 27.432ZM30.4823 28.5C30.4023 28.5 30.3343 28.472 30.2783 28.416C30.2223 28.36 30.1943 28.292 30.1943 28.212V22.56C30.1943 22.472 30.2223 22.4 30.2783 22.344C30.3343 22.288 30.4023 22.26 30.4823 22.26H31.4543C31.5343 22.26 31.6023 22.288 31.6583 22.344C31.7223 22.4 31.7543 22.472 31.7543 22.56V23.052C31.9383 22.796 32.1743 22.6 32.4623 22.464C32.7583 22.328 33.0983 22.26 33.4823 22.26H33.9743C34.0623 22.26 34.1303 22.288 34.1783 22.344C34.2343 22.4 34.2623 22.468 34.2623 22.548V23.412C34.2623 23.492 34.2343 23.56 34.1783 23.616C34.1303 23.672 34.0623 23.7 33.9743 23.7H33.0383C32.6543 23.7 32.3543 23.808 32.1383 24.024C31.9303 24.24 31.8263 24.536 31.8263 24.912V28.212C31.8263 28.292 31.7983 28.36 31.7423 28.416C31.6863 28.472 31.6143 28.5 31.5263 28.5H30.4823ZM38.0183 28.5C37.5383 28.5 37.1343 28.416 36.8063 28.248C36.4783 28.08 36.2343 27.832 36.0743 27.504C35.9143 27.168 35.8343 26.752 35.8343 26.256V23.532H34.8863C34.8063 23.532 34.7383 23.504 34.6823 23.448C34.6263 23.392 34.5983 23.324 34.5983 23.244V22.548C34.5983 22.468 34.6263 22.4 34.6823 22.344C34.7383 22.288 34.8063 22.26 34.8863 22.26H35.8343V20.268C35.8343 20.188 35.8583 20.12 35.9062 20.064C35.9622 20.008 36.0343 19.98 36.1223 19.98H37.0943C37.1743 19.98 37.2423 20.008 37.2983 20.064C37.3543 20.12 37.3823 20.188 37.3823 20.268V22.26H38.8823C38.9623 22.26 39.0303 22.288 39.0863 22.344C39.1423 22.4 39.1703 22.468 39.1703 22.548V23.244C39.1703 23.324 39.1423 23.392 39.0863 23.448C39.0303 23.504 38.9623 23.532 38.8823 23.532H37.3823V26.136C37.3823 26.464 37.4383 26.72 37.5503 26.904C37.6703 27.088 37.8743 27.18 38.1623 27.18H38.9903C39.0703 27.18 39.1383 27.208 39.1943 27.264C39.2503 27.32 39.2783 27.388 39.2783 27.468V28.212C39.2783 28.292 39.2503 28.36 39.1943 28.416C39.1383 28.472 39.0703 28.5 38.9903 28.5H38.0183ZM42.1548 28.62C41.7388 28.62 41.3628 28.54 41.0268 28.38C40.6908 28.212 40.4228 27.992 40.2228 27.72C40.0308 27.44 39.9348 27.128 39.9348 26.784C39.9348 26.224 40.1588 25.78 40.6068 25.452C41.0628 25.116 41.6628 24.892 42.4068 24.78L44.0508 24.54V24.288C44.0508 23.952 43.9668 23.692 43.7988 23.508C43.6308 23.324 43.3428 23.232 42.9348 23.232C42.6468 23.232 42.4108 23.292 42.2268 23.412C42.0508 23.524 41.9188 23.676 41.8308 23.868C41.7668 23.972 41.6748 24.024 41.5548 24.024H40.6068C40.5188 24.024 40.4508 24 40.4028 23.952C40.3628 23.904 40.3428 23.84 40.3428 23.76C40.3508 23.632 40.4028 23.476 40.4988 23.292C40.5948 23.108 40.7468 22.932 40.9548 22.764C41.1628 22.588 41.4308 22.44 41.7588 22.32C42.0868 22.2 42.4828 22.14 42.9468 22.14C43.4508 22.14 43.8748 22.204 44.2188 22.332C44.5708 22.452 44.8508 22.616 45.0588 22.824C45.2668 23.032 45.4188 23.276 45.5148 23.556C45.6108 23.836 45.6588 24.132 45.6588 24.444V28.212C45.6588 28.292 45.6308 28.36 45.5748 28.416C45.5188 28.472 45.4508 28.5 45.3708 28.5H44.3988C44.3108 28.5 44.2388 28.472 44.1828 28.416C44.1348 28.36 44.1108 28.292 44.1108 28.212V27.744C44.0068 27.896 43.8668 28.04 43.6908 28.176C43.5148 28.304 43.2988 28.412 43.0428 28.5C42.7948 28.58 42.4988 28.62 42.1548 28.62ZM42.5628 27.48C42.8428 27.48 43.0948 27.42 43.3188 27.3C43.5508 27.18 43.7308 26.996 43.8588 26.748C43.9948 26.492 44.0628 26.172 44.0628 25.788V25.536L42.8628 25.728C42.3908 25.8 42.0388 25.916 41.8068 26.076C41.5748 26.236 41.4588 26.432 41.4588 26.664C41.4588 26.84 41.5108 26.992 41.6148 27.12C41.7268 27.24 41.8668 27.332 42.0348 27.396C42.2028 27.452 42.3788 27.48 42.5628 27.48ZM47.4863 28.5C47.4063 28.5 47.3383 28.472 47.2823 28.416C47.2263 28.36 47.1982 28.292 47.1982 28.212V22.56C47.1982 22.472 47.2263 22.4 47.2823 22.344C47.3383 22.288 47.4063 22.26 47.4863 22.26H48.4583C48.5383 22.26 48.6063 22.288 48.6623 22.344C48.7263 22.4 48.7583 22.472 48.7583 22.56V23.052C48.9423 22.796 49.1783 22.6 49.4663 22.464C49.7623 22.328 50.1023 22.26 50.4863 22.26H50.9783C51.0663 22.26 51.1343 22.288 51.1823 22.344C51.2383 22.4 51.2663 22.468 51.2663 22.548V23.412C51.2663 23.492 51.2383 23.56 51.1823 23.616C51.1343 23.672 51.0663 23.7 50.9783 23.7H50.0423C49.6583 23.7 49.3583 23.808 49.1423 24.024C48.9343 24.24 48.8303 24.536 48.8303 24.912V28.212C48.8303 28.292 48.8023 28.36 48.7463 28.416C48.6903 28.472 48.6183 28.5 48.5303 28.5H47.4863Z" fill="#565353"/>
<g clip-path="url(#clip0_242_2091)">
<path fill-rule="evenodd" clip-rule="evenodd" d="M34.1819 16.232H22.3638L16.0001 20.7639V16.232H12.3638V0.901886H34.1819V16.232ZM14.182 2.70744V14.4264H17.8183V17.2476L21.7792 14.4264H32.3638V2.70744H14.182ZM23.2729 10.382C23.9001 10.382 24.4092 10.8875 24.4092 11.5104C24.4092 12.1333 23.9001 12.6389 23.2729 12.6389C22.6456 12.6389 22.1365 12.1333 22.1365 11.5104C22.1365 10.8875 22.6456 10.382 23.2729 10.382ZM24.182 4.5139V9.02779H22.3638V4.5139H24.182Z" fill="#565353"/>
</g>
<defs>
<clipPath id="clip0_242_2091">
<rect width="21.8182" height="21.6667" fill="white" transform="translate(12.3638)"/>
</clipPath>
</defs>
</svg>
