<svg width="41" height="39" viewBox="0 0 41 39" fill="none" xmlns="http://www.w3.org/2000/svg">
<path opacity="0.4" d="M20.5924 34.8824C29.8593 34.8824 37.3715 27.8953 37.3715 19.2763C37.3715 10.6572 29.8593 3.6701 20.5924 3.6701C11.3255 3.6701 3.81323 10.6572 3.81323 19.2763C3.81323 27.8953 11.3255 34.8824 20.5924 34.8824Z" fill="black"/>
<path d="M32.2187 28.5625L27.3437 23.6562C30.8437 19.75 30.5624 13.75 26.6562 10.2187C22.7499 6.68749 16.7499 6.99999 13.2187 10.9062C9.6874 14.8125 9.9999 20.8125 13.9062 24.3437C17.5312 27.625 23.0624 27.625 26.6874 24.3437L31.5937 29.25L32.2187 28.5625ZM20.2812 25.8437C15.5624 25.8437 11.7187 22 11.7187 17.2812C11.7187 12.5312 15.5624 8.71874 20.2812 8.71874C24.9999 8.71874 28.8437 12.5625 28.8437 17.2812C28.8437 22 24.9999 25.8437 20.2812 25.8437Z" fill="black"/>
<path d="M20.2812 10V10.9375C23.7813 10.9375 26.625 13.7812 26.625 17.2812H27.5625C27.5625 13.25 24.3125 10 20.2812 10Z" fill="black"/>
</svg>
